<?xml version="1.0" encoding="UTF-8"?>
<svg width="128pt" height="128pt" version="1.1" viewBox="0 0 128 128" xmlns="http://www.w3.org/2000/svg">
 <g fill="#fff">
  <path d="m8 69.102v-20.199c10.539-0.94141 18.961-9.3594 19.898-19.898h52.199c0.71875 8.1602 5.9219 15.059 13.141 18.16 3.0352-2.418 6.7734-4.3867 10.762-4.1406v-10.02c0-4.4219-3.5781-8-8-8l-84-0.003906c-4.418 0-8 3.5781-8 8v52c0 4.418 3.582 8 8 8h50.941c0.019532-1.3789 0.16016-2.6992 0.39844-4h-35.441c-0.94141-10.539-9.3594-18.961-19.898-19.898z"/>
  <path d="m32 58c0 13.781 9.8594 25 22 25 29.18-1.3438 29.168-48.664 0-50-12.141 0-22 11.219-22 25z"/>
  <path d="m108.5 70.262c1.5977-2.2695 1.1445-5.6875-0.82031-7.5391l2.5586-7.7188c1.4922-4.0625-2.0664-8.2305-6.2383-7.9805-3.2305-0.23047-5.9688 1.4648-8.3398 3.3203-2.9883 2.5039-6.4609 3.8828-10.559 2.7188-3.3242-0.9375-6.2109 3.0938-4.3398 5.9609l2.3203 3.8789c-1.832 1.9219-2.1484 5.1719-0.62109 7.3594-8.9648 4.75-15.203 13.281-15.52 22.738-0.17578 12.188 11.055 19.988 28.539 20 17.32 0 28.52-7.7188 28.52-19.68 0-9.0586-6.3594-18.32-15.5-23.059zm-15.02 18.738h4c7.9258 0.26172 7.9258 11.738 0 12v2c-0.050781 2.6289-3.9648 2.625-4 0v-2h-4c-2.6289-0.042969-2.6328-3.9609 0-4h8c1.1016 0 2-0.89844 2-2s-0.89844-2-2-2h-4c-7.9102-0.20312-7.9102-11.797 0-12v-2c0-1.1016 0.87891-2 2-2 1.1016 0 2 0.89844 2 2v2h4c2.625 0.050781 2.6289 3.9492 0 4h-8c-2.625 0.046875-2.6289 3.9492 0 4zm10.941-20.238h-17.879c-1.7969-0.86719-1.1094-3.8359 0.94141-3.7617h16c2.0312-0.046875 2.7461 2.832 0.94141 3.7617z"/>
  <path d="m105 26c0.51172 0 1.0234-0.19531 1.4141-0.58594l3-3c1.8398-1.8555-0.96875-4.6719-2.8281-2.8281l-3 3c-1.2734 1.1875-0.29688 3.4766 1.4141 3.4141z"/>
  <path d="m98 23c1.1055 0 2-0.89453 2-2v-4c0-1.1055-0.89453-2-2-2s-2 0.89453-2 2v4c0 1.1055 0.89453 2 2 2z"/>
  <path d="m106 31c0 1.1055 0.89453 2 2 2h4c1.1055 0 2-0.89453 2-2s-0.89453-2-2-2h-4c-1.1055 0-2 0.89453-2 2z"/>
 </g>
</svg>
