<?xml version="1.0" encoding="utf-8"?>
<!-- Generator: Adobe Illustrator 26.0.3, SVG Export Plug-In . SVG Version: 6.00 Build 0)  -->
<svg version="1.1" id="chomping-at-the-bit" xmlns="http://www.w3.org/2000/svg" xmlns:xlink="http://www.w3.org/1999/xlink"
	 x="0px" y="0px" viewBox="0 0 1200 1200" style="enable-background:new 0 0 1200 1200;" xml:space="preserve">
<style type="text/css">
	.st0{fill:#478AFF;stroke:#478AFF;stroke-width:20;stroke-miterlimit:10;}
</style>
<path class="st0" d="M1078,697.2c14.2,31.3,22,66.1,22,102.8c0,138.1-111.9,250-250,250c-16,0-31.6-1.5-46.8-4.4
	C757.9,1108.8,683.8,1150,600,1150s-157.9-41.2-203.2-104.4c-15.2,2.9-30.8,4.4-46.8,4.4c-138.1,0-250-111.9-250-250
	c0-36.6,7.9-71.4,22-102.8c-14.3-46.5-22-96-22-147.2c0-276.1,223.9-500,500-500s500,223.9,500,500
	C1100,601.2,1092.3,650.7,1078,697.2L1078,697.2z M1032.4,717.8l-7.8-17.2l5.6-18.1c13.1-42.5,19.8-87.1,19.8-132.5
	c0-248.5-201.5-450-450-450S150,301.5,150,550c0,45.5,6.7,90,19.8,132.5l5.6,18.1l-7.8,17.2C156.1,743.4,150,771.2,150,800
	c0,110.5,89.5,200,200,200c12.7,0,25.2-1.2,37.5-3.5l31.3-5.9l18.6,25.9c37.4,52.1,97.3,83.5,162.6,83.5s125.2-31.4,162.6-83.5
	l18.6-25.9l31.3,5.9c12.2,2.3,24.8,3.5,37.5,3.5c110.5,0,200-89.5,200-200C1050,771.2,1044,743.4,1032.4,717.8L1032.4,717.8z
	 M400,850c0-55.2-44.8-100-100-100v-50c82.8,0,150,67.2,150,150H400z M800,850h-50c0-82.8,67.2-150,150-150v50
	C844.8,750,800,794.8,800,850z M550,800h100v50H550V800z M826.8,541.4c-39.1-39.1-102.4-39.1-141.4,0L650,506.1
	c58.6-58.6,153.5-58.6,212.1,0L826.8,541.4z M385.4,541.4L350,506.1c58.6-58.6,153.5-58.6,212.1,0l-35.4,35.4
	C487.8,502.4,424.4,502.4,385.4,541.4L385.4,541.4z"/>
</svg>
