<?xml version="1.0" encoding="UTF-8"?>
<svg width="1200pt" height="1200pt" version="1.1" viewBox="0 0 1200 1200" xmlns="http://www.w3.org/2000/svg">
 <path d="m1078 697.23c14.152 31.348 22.031 66.137 22.031 102.77 0 138.07-111.93 250-250 250-15.984 0-31.621-1.5-46.773-4.3672-45.371 63.199-119.49 104.37-203.23 104.37s-157.86-41.168-203.23-104.37c-15.152 2.8672-30.789 4.3672-46.773 4.3672-138.07 0-250-111.93-250-250 0-36.629 7.8789-71.418 22.031-102.77-14.324-46.547-22.031-95.988-22.031-147.23 0-276.14 223.86-500 500-500s500 223.86 500 500c0 51.246-7.707 100.69-22.031 147.23zm-45.57 20.574-7.7734-17.219 5.5547-18.059c13.09-42.539 19.82-87.055 19.82-132.53 0-248.53-201.47-450-450-450s-450 201.47-450 450c0 45.477 6.7305 89.992 19.82 132.53l5.5547 18.059-7.7734 17.219c-11.551 25.582-17.602 53.414-17.602 82.191 0 110.46 89.543 200 200 200 12.703 0 25.227-1.1797 37.477-3.4961l31.324-5.9297 18.59 25.898c37.387 52.078 97.32 83.527 162.61 83.527s125.22-31.449 162.61-83.527l18.59-25.898 31.324 5.9297c12.25 2.3164 24.773 3.4961 37.477 3.4961 110.46 0 200-89.543 200-200 0-28.777-6.0508-56.609-17.602-82.191zm-632.4 132.19c0-55.227-44.773-100-100-100v-50c82.844 0 150 67.156 150 150zm400 0h-50c0-82.844 67.156-150 150-150v50c-55.227 0-100 44.773-100 100zm-250-50h100v50h-100zm276.78-258.58c-39.055-39.055-102.37-39.055-141.42 0l-35.355-35.355c58.578-58.578 153.55-58.578 212.13 0zm-441.42 0-35.355-35.355c58.578-58.578 153.55-58.578 212.13 0l-35.355 35.355c-39.055-39.055-102.37-39.055-141.42 0z" fill="#00449e"/>
</svg>
