<?xml version="1.0" encoding="UTF-8"?>
<svg width="128pt" height="128pt" version="1.1" viewBox="0 0 128 128" xmlns="http://www.w3.org/2000/svg">
 <g>
  <path d="m64 109.75c-25.227 0-45.75-20.527-45.75-45.754s20.523-45.75 45.75-45.75c25.23 0 45.754 20.523 45.754 45.75s-20.527 45.754-45.754 45.754zm0-89.496c-24.121 0-43.742 19.625-43.742 43.742 0 24.121 19.621 43.742 43.742 43.742s43.742-19.621 43.742-43.742-19.621-43.742-43.742-43.742z"/>
  <path d="m52.254 52.074h-2.0078c0-2.2031-1.7891-3.9961-3.9961-3.9961-2.2031 0-3.9961 1.793-3.9961 3.9961h-2.0078c0-3.3125 2.6953-6.0039 6.0039-6.0039 3.3125 0 6.0039 2.6953 6.0039 6.0039z"/>
  <path d="m88.062 52.074h-2.0078c0-2.2031-1.7891-3.9961-3.9961-3.9961-2.2031 0-3.9961 1.793-3.9961 3.9961h-2.0078c0-3.3125 2.6953-6.0039 6.0078-6.0039 3.3086 0 6 2.6953 6 6.0039z"/>
  <path d="m86.57 90.328c-5.5312 0-10.027-4.5-10.027-10.031s4.4961-10.031 10.027-10.031v2.0078c-4.4219 0-8.0195 3.5977-8.0195 8.0234 0 4.4219 3.5977 8.0234 8.0195 8.0234z"/>
  <path d="m64.047 90.98c-6.4648 0-12.926-2.1016-18.125-6.2422l1.2539-1.5742c8.957 7.1328 21.914 7.7656 31.508 1.5391l1.0938 1.6836c-4.7344 3.0742-10.234 4.5938-15.73 4.5938z"/>
 </g>
</svg>
