<?xml version="1.0" encoding="UTF-8"?>
<svg width="128pt" height="128pt" version="1.1" viewBox="0 0 128 128" xmlns="http://www.w3.org/2000/svg">
 <g>
  <path d="m128 64c0 35.348-28.652 64-64 64s-64-28.652-64-64 28.652-64 64-64 64 28.652 64 64" fill="#1a3760"/>
  <path d="m64 92.812c-15.887 0-28.812-12.926-28.812-28.812s12.926-28.812 28.812-28.812 28.816 12.926 28.816 28.812c-0.003906 15.887-12.93 28.812-28.816 28.812zm0-56.359c-15.191 0-27.547 12.359-27.547 27.547 0 15.191 12.355 27.547 27.547 27.547s27.547-12.359 27.547-27.547c0-15.191-12.355-27.547-27.547-27.547z" fill="#fff"/>
  <path d="m56.602 56.492h-1.2656c0-1.3867-1.125-2.5156-2.5156-2.5156-1.3867 0-2.5156 1.1289-2.5156 2.5156h-1.2656c0-2.0859 1.6992-3.7812 3.7812-3.7812 2.0859-0.003907 3.7812 1.6953 3.7812 3.7812z" fill="#fff"/>
  <path d="m79.152 56.492h-1.2656c0-1.3867-1.125-2.5156-2.5156-2.5156-1.3867 0-2.5156 1.1289-2.5156 2.5156h-1.2656c0-2.0859 1.6992-3.7812 3.7812-3.7812 2.0859-0.003907 3.7812 1.6953 3.7812 3.7812z" fill="#fff"/>
  <path d="m78.215 80.582c-3.4805 0-6.3164-2.8359-6.3164-6.3164s2.832-6.3164 6.3164-6.3164v1.2656c-2.7852 0-5.0508 2.2656-5.0508 5.0508s2.2656 5.0508 5.0508 5.0508z" fill="#fff"/>
  <path d="m64.031 80.988c-4.0703 0-8.1406-1.3242-11.414-3.9336l0.78906-0.99219c5.6406 4.4922 13.801 4.8906 19.844 0.96875l0.6875 1.0586c-2.9844 1.9453-6.4453 2.8984-9.9062 2.8984z" fill="#fff"/>
 </g>
</svg>
