<?xml version="1.0" encoding="UTF-8"?>
<svg width="128pt" height="128pt" version="1.1" viewBox="0 0 128 128" xmlns="http://www.w3.org/2000/svg">
 <g>
  <path d="m71.574 27.367h-61.336c-2.1211 0-3.8398 1.7188-3.8398 3.8398v56.027c0 2.1211 1.7188 3.8398 3.8398 3.8398h5.7148c0-6.4414 5.2383-11.68 11.68-11.68 6.4414 0 11.68 5.2422 11.68 11.68h36.102v-59.867c0-2.1172-1.7188-3.8398-3.8398-3.8398z"/>
  <path d="m120.8 63.531-19.637-24.547c-0.44141-0.55078-1.3711-1-2.0781-1l-19.957 0.003906v53.09h4.2461c0-6.4414 5.2383-11.68 11.676-11.68 6.4414 0 11.68 5.2422 11.68 11.68l11.031-0.003906c2.1211 0 3.8398-1.7188 3.8398-3.8398v-21.422c0-0.70703-0.35937-1.7305-0.80078-2.2812zm-34.77-1.125v-19.109h10.617l15.289 19.113z"/>
  <path d="m27.637 81.52c-5.2695 0-9.5547 4.2852-9.5547 9.5547 0 5.2656 4.2891 9.5547 9.5547 9.5547 5.2695 0 9.5547-4.2852 9.5547-9.5547s-4.2852-9.5547-9.5547-9.5547z"/>
  <path d="m95.059 81.52c-5.2695 0-9.5586 4.2852-9.5586 9.5547 0 5.2656 4.2891 9.5547 9.5586 9.5547 5.2656 0 9.5547-4.2852 9.5547-9.5547s-4.2891-9.5547-9.5547-9.5547z"/>
 </g>
</svg>
