<?xml version="1.0" encoding="UTF-8"?>
<svg width="128pt" height="128pt" version="1.1" viewBox="0 0 128 128" xmlns="http://www.w3.org/2000/svg">
 <g fill="#fff">
  <path d="m34 4h4v4h-4z"/>
  <path d="m44 4h4v4h-4z"/>
  <path d="m32 16h4v-4h-4c-4.4102 0-8 3.5898-8 8h4c0-2.207 1.793-4 4-4z"/>
  <path d="m30 4c-8.8203 0-16 7.1797-16 16h4c0-6.6172 5.3828-12 12-12z"/>
  <path d="m14 78c0-7.7188 6.2812-14 14-14h4c7.7188 0 14 6.2812 14 14v6h8.0312c0.875-1.1602 1.8711-2.2266 2.9727-3.1719l-0.32422-1.5c-0.625-2.8867-1.9219-5.5625-3.6719-8.6875-0.90625-1.6211-1.2109-3.457-0.875-5.3203 0.56641-3.1797 3.0703-5.7461 6.2305-6.3789 2.3906-0.48047 4.8125 0.12891 6.6367 1.5938 2.8008-2.25 7.2031-2.25 10.004 0 1.8242-1.4648 4.2305-2.0742 6.6367-1.5938 3.1562 0.63672 5.6602 3.2031 6.2305 6.3828 0.33594 1.8594 0.03125 3.6992-0.875 5.3164-1.75 3.125-3.043 5.7969-3.6719 8.6836l-0.32031 1.4805c1.1055 0.94922 2.0977 2.0234 2.9766 3.1914h34.02v-74.039l-34 25.055v18.988h-4v-44.043l-34 25.055v28.988h-4v-38.16l-36 25.199v32.961h6zm90-42h6v4h-6zm0 8h6v4h-6zm-12-8h6v4h-6zm0 8h6v4h-6zm-26-8h6v4h-6zm0 8h6v4h-6zm-12-8h6v4h-6zm0 8h6v4h-6z"/>
  <path d="m42 78c0-5.5156-4.4844-10-10-10h-4c-5.5156 0-10 4.4844-10 10v4.1758l6.0781-0.066406c4.3672-0.050781 7.9219-3.6445 7.9219-8.0117 0-1.0273 0.78125-1.9375 1.8008-2.0391 1.0547-0.10938 1.957 0.54297 2.1562 1.5508l0.42969 2.1523c0.60156 2.9961 2.7969 5.2773 5.6094 6.0938z"/>
  <path d="m120 96h-12v12c0 1.1055-0.89453 2-2 2h-8c-1.1055 0-2-0.89453-2-2v-12h-12v24h36z"/>
  <path d="m79.441 78.379c0.78516-3.5312 2.4141-6.7422 4.0625-9.6914 0.44922-0.80078 0.59766-1.7188 0.42969-2.6562-0.27734-1.5586-1.543-2.8594-3.082-3.168-1.6562-0.33594-3.2617 0.32031-4.1836 1.7109-0.37109 0.55859-0.99609 0.89453-1.6641 0.89453-0.67188 0-1.2969-0.33594-1.668-0.89453-0.74609-1.1211-1.9922-1.793-3.3359-1.793s-2.5898 0.67188-3.332 1.7969c-0.74219 1.1211-2.5977 1.1172-3.3359 0-0.92578-1.3867-2.5312-2.0469-4.1836-1.7109-1.5391 0.30859-2.8047 1.6094-3.082 3.1641-0.17188 0.94141-0.023437 1.8594 0.42969 2.6562 1.6484 2.9453 3.2773 6.1602 4.0625 9.6914 2.8164-1.5156 6.0312-2.3789 9.4414-2.3789 3.4062 0 6.6172 0.86719 9.4414 2.3789z"/>
  <path d="m100 96h4v10h-4z"/>
  <path d="m10 118v2h40v-2c0-3.3086-2.6914-6-6-6-1.9492 0-3.7578-0.58594-5.3008-1.5547l-7.9141 3.3906c-0.25 0.10937-0.51562 0.16406-0.78516 0.16406-0.30469 0-0.61328-0.070312-0.89453-0.21094l-7.3203-3.6602c-1.6406 1.168-3.6289 1.8711-5.7852 1.8711-3.3086 0-6 2.6914-6 6z"/>
  <path d="m54 114c0 3.3086 2.6914 6 6 6h20v-26c0-1.1055 0.89453-2 2-2h3.4727c-1.7852-6.9727-8.0742-12-15.473-12-8.8203 0-16 7.1797-16 16zm8-8h4v1c0 1.6523 1.3477 3 3 3s3-1.3477 3-3-1.3477-3-3-3c-3.8594 0-7-3.1406-7-7 0-2.7812 1.6445-5.1719 4-6.2969v-2.7031h4v2.1016c3.3828 0.48828 6 3.3828 6 6.8984v1h-4v-1c0-1.6523-1.3477-3-3-3s-3 1.3477-3 3 1.3477 3 3 3c3.8594 0 7 3.1406 7 7 0 3.5156-2.6172 6.4062-6 6.8984v2.1016h-4v-2.7031c-2.3555-1.1289-4-3.5156-4-6.2969z"/>
  <path d="m33.941 102.49c-1.2539 0.53516-2.5977 0.80469-3.9414 0.80469s-2.6875-0.26953-3.9375-0.80469c-0.039062-0.015625-0.070312-0.039062-0.10547-0.054687-0.074219 1.6875-0.56641 3.2539-1.375 4.6211l5.4844 2.7422 5.5547-2.3789c-0.9375-1.4492-1.4922-3.1523-1.5742-4.9844-0.039063 0.015625-0.070313 0.039062-0.10547 0.054687z"/>
  <path d="m12 43.359 12-8.4023v-12.957h-12z"/>
  <path d="m41.871 85.945c-3.2695-0.64844-6.0781-2.5938-7.8047-5.3594-2.125 3.2891-5.7891 5.4766-9.9453 5.5234l-5.9727 0.066406c0.69531 5.5547 4.25 10.391 9.4883 12.637 1.5039 0.64062 3.2227 0.64062 4.7266 0h0.003907c5.3086-2.2773 8.8789-7.2148 9.5039-12.867z"/>
 </g>
</svg>
